<?xml version="1.0" encoding="UTF-8"?>
<svg width="198px" height="204px" viewBox="0 0 198 204" version="1.1" xmlns="http://www.w3.org/2000/svg" xmlns:xlink="http://www.w3.org/1999/xlink">
    <!-- Generator: Sketch 43.1 (39012) - http://www.bohemiancoding.com/sketch -->
    <title>clock</title>
    <desc>Created with Sketch.</desc>
    <defs></defs>
    <g id="Page-1" stroke="none" stroke-width="1" fill="none" fill-rule="evenodd">
        <g id="clock" fill-rule="nonzero" fill="#655847">
            <path d="M191.139,11.918 L151.824,11.918 L151.824,6 C151.824,2.687 149.137,0 145.824,0 C142.511,0 139.824,2.687 139.824,6 L139.824,11.918 L104.771,11.918 L104.771,6 C104.771,2.687 102.084,0 98.771,0 C95.458,0 92.771,2.687 92.771,6 L92.771,11.918 L59.208,11.918 L59.208,6 C59.208,2.687 56.521,0 53.208,0 C49.895,0 47.208,2.687 47.208,6 L47.208,11.918 L6.404,11.918 C3.091,11.918 0.404,14.605 0.404,17.918 L0.404,153.49 C0.404,156.803 3.091,159.49 6.404,159.49 L43.23,159.49 C49.131,184.704 71.785,203.543 98.771,203.543 C125.757,203.543 148.411,184.703 154.312,159.49 L191.138,159.49 C194.451,159.49 197.138,156.803 197.138,153.49 L197.138,17.918 C197.139,14.605 194.453,11.918 191.139,11.918 L191.139,11.918 Z M47.208,23.918 L47.208,29.34 C47.208,32.653 49.895,35.34 53.208,35.34 C56.521,35.34 59.208,32.653 59.208,29.34 L59.208,23.918 L92.771,23.918 L92.771,29.34 C92.771,32.653 95.458,35.34 98.771,35.34 C102.084,35.34 104.771,32.653 104.771,29.34 L104.771,23.918 L139.824,23.918 L139.824,29.34 C139.824,32.653 142.511,35.34 145.824,35.34 C149.137,35.34 151.824,32.653 151.824,29.34 L151.824,23.918 L185.139,23.918 L185.139,48.454 L12.404,48.454 L12.404,23.918 L47.208,23.918 L47.208,23.918 Z M98.771,191.543 C73.929,191.543 53.718,171.332 53.718,146.49 C53.718,121.648 73.929,101.437 98.771,101.437 C123.613,101.437 143.824,121.647 143.824,146.49 C143.824,171.333 123.614,191.543 98.771,191.543 L98.771,191.543 Z M155.799,147.49 C155.805,147.156 155.824,146.825 155.824,146.49 C155.824,115.031 130.23,89.437 98.771,89.437 C67.312,89.437 41.718,115.031 41.718,146.49 C41.718,146.825 41.738,147.156 41.743,147.49 L12.403,147.49 L12.403,60.455 L185.138,60.455 L185.138,147.49 L155.799,147.49 L155.799,147.49 Z" id="Shape"></path>
            <path d="M104.771,148.004 L104.771,118.978 C104.771,115.665 102.084,112.978 98.771,112.978 C95.458,112.978 92.771,115.665 92.771,118.978 L92.771,150.49 C92.771,152.081 93.403,153.607 94.528,154.733 L108.318,168.524 C109.49,169.695 111.025,170.281 112.561,170.281 C114.096,170.281 115.632,169.695 116.804,168.524 C119.147,166.181 119.147,162.382 116.804,160.039 L104.771,148.004 Z" id="Shape"></path>
        </g>
    </g>
</svg>