<?xml version="1.0" encoding="UTF-8"?>
<svg width="408px" height="510px" viewBox="0 0 408 510" version="1.1" xmlns="http://www.w3.org/2000/svg" xmlns:xlink="http://www.w3.org/1999/xlink">
    <!-- Generator: Sketch 43.1 (39012) - http://www.bohemiancoding.com/sketch -->
    <title>hotel-with-three-floors</title>
    <desc>Created with Sketch.</desc>
    <defs></defs>
    <g id="Page-1" stroke="none" stroke-width="1" fill="none" fill-rule="evenodd">
        <g id="hotel-with-three-floors" fill-rule="nonzero" fill="#655847">
            <path d="M331.5,51 L331.5,0 L76.5,0 L76.5,51 L0,51 L0,510 L153,510 L153,459 L255,459 L255,510 L408,510 L408,51 L331.5,51 Z M178.5,382.5 L127.5,382.5 L127.5,331.5 L178.5,331.5 L178.5,382.5 Z M178.5,280.5 L127.5,280.5 L127.5,229.5 L178.5,229.5 L178.5,280.5 Z M178.5,178.5 L127.5,178.5 L127.5,127.5 L178.5,127.5 L178.5,178.5 Z M280.5,382.5 L229.5,382.5 L229.5,331.5 L280.5,331.5 L280.5,382.5 Z M280.5,280.5 L229.5,280.5 L229.5,229.5 L280.5,229.5 L280.5,280.5 Z M280.5,178.5 L229.5,178.5 L229.5,127.5 L280.5,127.5 L280.5,178.5 Z" id="Shape"></path>
        </g>
    </g>
</svg>